<svg id="Capa_1" enable-background="new 0 0 512 512" height="512" viewBox="0 0 512 512" width="512" xmlns="http://www.w3.org/2000/svg"><path d="m431.179 274.761h-344.05l-49.572-58.481c-14.87-4.349-25.773-18.889-25.731-36.139.021-8.903 2.937-17.065 7.811-23.475 4.864-6.41 11.686-11.057 19.487-12.933-5.307-6.812-8.089-15.334-8.089-23.949 0-7.523 2.113-15.117 6.523-21.702 6.841-10.211 17.61-15.662 28.544-15.662 3.473 0 6.966.546 10.346 1.669-.495-2.535-.742-5.091-.742-7.636 0-12.469 5.843-24.66 16.467-31.749 5.781-3.854 12.191-5.688 18.539-5.688 7.296 0 14.489 2.432 20.486 7.028.701-7.224 3.38-14.066 7.605-19.651 4.225-5.606 10.006-9.955 16.921-12.242 3.442-1.134 6.925-1.68 10.356-1.68 10.15 0 19.785 4.751 26.391 12.819 2.164-6.739 6.1-12.665 11.253-17.086 5.163-4.421 11.552-7.327 18.631-8.038 1.113-.113 2.216-.165 3.318-.165 12.768 0 24.216 7.42 30.327 18.724 6.636-12.273 19.559-19.971 33.645-18.559 7.079.711 13.469 3.617 18.631 8.038 5.152 4.421 9.089 10.346 11.253 17.086 6.605-8.069 16.241-12.819 26.391-12.819 3.432 0 6.915.546 10.356 1.68 6.915 2.288 12.696 6.636 16.921 12.242 4.225 5.585 6.904 12.428 7.605 19.651 5.997-4.596 13.19-7.028 20.486-7.028 6.348 0 12.757 1.834 18.539 5.688 10.624 7.09 16.467 19.28 16.467 31.749 0 2.545-.247 5.101-.742 7.636 3.38-1.123 6.873-1.669 10.346-1.669 10.933 0 21.702 5.451 28.545 15.663 4.41 6.585 6.523 14.18 6.523 21.702 0 8.615-2.782 17.137-8.089 23.949 7.801 1.875 14.623 6.523 19.487 12.933 4.874 6.41 7.79 14.571 7.811 23.475v.093c0 17.219-25.742 36.047-25.742 36.047" fill="#5e6b75"/><path d="m124.138 263.796 58.337-79.491c-15.437-1.319-28.998-13.427-32.368-30.338-1.742-8.739-.495-17.312 3.019-24.557 3.504-7.244 9.274-13.149 16.55-16.529-6.544-5.626-10.954-13.438-12.654-21.877-1.494-7.378-.917-15.241 2.102-22.568 4.689-11.356 14.169-18.827 24.886-20.991 3.411-.69 6.935-.845 10.48-.402-.989-2.391-1.742-4.843-2.236-7.348-.989-4.915-1.041-9.975-.165-14.849-6.585-7.801-16.045-12.376-26.01-12.376-3.432 0-6.915.546-10.356 1.68-6.915 2.288-12.696 6.636-16.921 12.242-4.225 5.585-6.904 12.428-7.605 19.651-5.997-4.596-13.19-7.028-20.486-7.028-6.348 0-12.757 1.834-18.538 5.688-10.624 7.09-16.467 19.28-16.467 31.749 0 2.545.247 5.101.742 7.636-3.38-1.123-6.873-1.669-10.346-1.669-10.933 0-21.702 5.451-28.545 15.663-4.411 6.585-6.523 14.18-6.523 21.702 0 8.615 2.782 17.137 8.089 23.949-7.801 1.875-14.623 6.523-19.487 12.933-4.874 6.41-7.79 14.571-7.811 23.475-.041 17.25 10.861 31.791 25.731 36.139" fill="#4d5961"/><path d="m421.696 512h-331.395c.247-9.47.618-18.94 1.103-28.411 2.432-47.495 40.436-85.294 87.952-87.54 51.092-2.411 102.194-2.411 153.296 0 47.506 2.246 85.51 40.045 87.942 87.54.483 9.471.854 18.941 1.102 28.411z" fill="#d8f1a0"/><path d="m256.003 394.236c-15.797 0-31.595.608-47.392 1.814-29.39 2.246-52.885 40.045-54.389 87.54-.299 9.47-.536 18.94-.68 28.411h-63.241c.247-9.47.618-18.94 1.103-28.411 2.432-47.495 40.436-85.294 87.952-87.54 25.545-1.206 51.091-1.814 76.647-1.814z" fill="#b7e445"/><path d="m306.095 406.251c.021.258.021.515.021.773 0 21.352-22.434 38.664-50.113 38.664s-50.123-17.312-50.123-38.664c0-.258 0-.515.021-.773" fill="#b17a4a"/><path d="m420.6 317.681c-2.432 47.495-40.447 85.304-87.942 87.54-25.556 1.206-51.112 1.814-76.658 1.814s-51.102-.608-76.658-1.814c-47.495-2.236-85.51-40.045-87.942-87.54-1.36-26.494-1.772-52.988-1.226-79.482l43.559-14.159 12.335-53.452 3.04-.453c70.867-10.604 142.919-10.604 213.785 0l3.04.453 12.335 53.452 43.559 14.159c.546 26.494.133 52.988-1.227 79.482z" fill="#c38959"/><path d="m210.607 406.395c-10.418-.289-20.847-.68-31.265-1.175-47.495-2.236-85.51-40.045-87.942-87.54-1.36-26.494-1.772-52.988-1.226-79.482l43.559-14.159 12.335-53.452 3.04-.453c3.988-.598 7.966-1.164 11.964-1.68-2.401 49.958-2.865 99.927-1.371 149.885 1.412 47.496 23.371 85.346 50.906 88.056z" fill="#b17a4a"/><path d="m255.997 329.352c-17.318 0-33.307-10.112-40.734-25.761-1.83-3.856-.187-8.466 3.669-10.296 3.857-1.832 8.466-.187 10.296 3.669 4.881 10.285 15.388 16.93 26.769 16.93s21.888-6.645 26.769-16.93c1.83-3.856 6.44-5.499 10.296-3.669s5.499 6.44 3.669 10.296c-7.426 15.65-23.415 25.761-40.734 25.761z" fill="#df9380"/><path d="m179.19 217.293c-8.233 0-14.93 9.989-14.93 22.267s6.697 22.267 14.93 22.267 14.931-9.989 14.931-22.267-6.698-22.267-14.931-22.267z" fill="#4d5961"/><path d="m332.805 217.293c-8.233 0-14.93 9.989-14.93 22.267s6.697 22.267 14.93 22.267 14.931-9.989 14.931-22.267c0-12.279-6.698-22.267-14.931-22.267z" fill="#4d5961"/><path d="m395.557 381.808c-21.216 0-39.6-11.125-40.634-11.762-3.634-2.239-4.766-7-2.527-10.634 2.236-3.629 6.987-4.763 10.62-2.535.272.166 27.461 16.486 48.719 5.893 15.451-7.7 24.895-27.947 28.07-60.178.419-4.247 4.196-7.352 8.449-6.934 4.248.418 7.352 4.201 6.934 8.449-3.736 37.932-16.066 62.339-36.647 72.542-7.584 3.76-15.464 5.159-22.984 5.159z" fill="#909ba5"/><path d="m418.764 315.387h.406c34.885 0 63.152-28.29 63.152-63.152 0-34.885-28.267-63.176-63.152-63.176-.454 0-.908 0-1.362.024" fill="#dd542e"/><path d="m482.322 252.236c0 34.861-28.266 63.148-63.159 63.148h-.402v-31.523h.402c29.451 0 54.173-20.146 61.17-47.392 1.299 5.039 1.989 10.326 1.989 15.767z" fill="#ce4529"/><path d="m418.763 323.116c-4.246 0-7.701-3.428-7.728-7.68l-.796-126.095c-.027-4.268 3.411-7.75 7.68-7.777h.05c4.246 0 7.701 3.428 7.728 7.68l.796 126.095c.027 4.268-3.411 7.75-7.68 7.777-.017 0-.034 0-.05 0z" fill="#909ba5"/><circle cx="344.067" cy="352.562" fill="#5e6b75" r="25.701"/><path d="m352.125 376.974c-2.535.835-5.245 1.288-8.058 1.288-14.19 0-25.7-11.511-25.7-25.7 0-14.19 11.511-25.7 25.7-25.7 2.813 0 5.523.453 8.058 1.288-10.253 3.38-17.652 13.036-17.652 24.412-.001 11.377 7.398 21.032 17.652 24.412z" fill="#4d5961"/><path d="m93.236 315.387c-.143 0-.263 0-.406 0-34.885 0-63.152-28.29-63.152-63.152 0-34.885 28.267-63.176 63.152-63.176.454 0 .908 0 1.362.024" fill="#dd542e"/><path d="m29.678 252.236c0 34.861 28.266 63.148 63.159 63.148h.402v-31.523h-.402c-29.451 0-54.173-20.146-61.17-47.392-1.299 5.039-1.989 10.326-1.989 15.767z" fill="#ce4529"/><path d="m93.237 323.116c4.246 0 7.7-3.428 7.728-7.68l.796-126.095c.027-4.268-3.411-7.75-7.68-7.777-.017 0-.033 0-.05 0-4.246 0-7.7 3.428-7.728 7.68l-.796 126.095c-.027 4.268 3.411 7.75 7.68 7.777z" fill="#909ba5"/></svg>